<?xml version="1.0" encoding="utf-8"?>
<!-- Generator: Adobe Illustrator 16.0.0, SVG Export Plug-In . SVG Version: 6.00 Build 0)  -->
<!DOCTYPE svg PUBLIC "-//W3C//DTD SVG 1.1//EN" "http://www.w3.org/Graphics/SVG/1.1/DTD/svg11.dtd">
<svg version="1.1" id="Layer_1" xmlns="http://www.w3.org/2000/svg" xmlns:xlink="http://www.w3.org/1999/xlink" x="0px" y="0px"
	 width="512px" height="512px" viewBox="0 0 512 512" enable-background="new 0 0 512 512" xml:space="preserve">
<path id="phone-5-icon" d="M442.431,154.004l-19.538,48.192c-12.333-5.001-22.758-14.707-28.353-27.931
	c-5.596-13.225-5.3-27.465-0.3-39.798L442.431,154.004z M342.344,113.428c-10.384,25.613-10.998,55.191,0.621,82.658
	c11.619,27.465,33.273,47.621,58.889,58.006l12.021-29.656c-18.023-7.307-33.263-21.492-41.438-40.819
	c-8.179-19.329-7.747-40.141-0.438-58.167L342.344,113.428z M289.704,92.088c-15.846,39.084-16.781,84.215,0.949,126.128
	c17.731,41.911,50.773,72.667,89.859,88.516l12.323-30.398c-31.307-12.691-57.771-37.326-71.973-70.898
	c-14.203-33.57-13.454-69.717-0.761-101.025L289.704,92.088z M318.549,451.475c-26.055,12.147-86.85,47.642-184.847-147.52
	c-97.165-193.501-32.179-223.592-8.233-236.313c0.576-0.295,35.029-17.623,35.068-17.642l58.123,115.711l-34.664,17.406
	c-36.449,19.923,39.445,171.092,76.714,152.646c1.511-0.682,34.24-17.089,34.37-17.154l58.593,115.329
	C353.547,434.002,320.56,450.541,318.549,451.475z"/>
</svg>
