<?xml version="1.0" encoding="utf-8"?>
<!-- Generator: Adobe Illustrator 16.0.0, SVG Export Plug-In . SVG Version: 6.00 Build 0)  -->
<!DOCTYPE svg PUBLIC "-//W3C//DTD SVG 1.1//EN" "http://www.w3.org/Graphics/SVG/1.1/DTD/svg11.dtd">
<svg version="1.1" id="Layer_1" xmlns="http://www.w3.org/2000/svg" xmlns:xlink="http://www.w3.org/1999/xlink" x="0px" y="0px"
	 width="512px" height="512px" viewBox="0 0 512 512" enable-background="new 0 0 512 512" xml:space="preserve">
<path id="error-6-icon" fill="#FFFFFF" d="M324.76,90.472l97.24,97.24v137.521l-97.24,97.239H187.24L90,325.23v-137.52l97.24-97.24
	L324.76,90.472 M341.328,50.472H170.672L50,171.144V341.8l120.672,120.672h170.656L462,341.8V171.144L341.328,50.472L341.328,50.472
	z M321.072,356.956l-64.071-64.067l-64.07,64.075l-34.415-34.435l64.058-64.066l-64.065-64.062l34.435-34.414l64.055,64.046
	l64.044-64.054l34.443,34.42l-64.055,64.06l64.062,64.055L321.072,356.956z"/>
</svg>
