<?xml version="1.0" encoding="utf-8"?>
<!-- Generator: Adobe Illustrator 16.0.0, SVG Export Plug-In . SVG Version: 6.00 Build 0)  -->
<!DOCTYPE svg PUBLIC "-//W3C//DTD SVG 1.1//EN" "http://www.w3.org/Graphics/SVG/1.1/DTD/svg11.dtd">
<svg version="1.1" id="Layer_1" xmlns="http://www.w3.org/2000/svg" xmlns:xlink="http://www.w3.org/1999/xlink" x="0px" y="0px"
	 width="512px" height="512px" viewBox="0 0 512 512" enable-background="new 0 0 512 512" xml:space="preserve">
<path id="user-10-icon" fill="#FFFFFF" d="M407.448,360.475c-59.036-13.617-113.989-25.541-87.375-75.718
	c6.873-12.957,12.71-25.39,17.629-37.317c-14.863,8.506-31.467,15.082-40.49,17.324l-3.853-18.265
	c19.728-5.617,40.998-16.093,55.831-31.492c31.511-107.7-21.763-164.656-93.189-164.656c-87.231,0-145.303,84.812-64.072,234.406
	c27.412,50.481-29.608,62.394-87.375,75.718c-59.012,13.608-54.473,44.723-54.473,101.176h411.838
	C461.919,405.195,466.458,374.083,407.448,360.475z M256.128,278.615c-7.574,1.559-14.975-3.317-16.533-10.893
	c-1.559-7.574,3.318-14.977,10.893-16.534l30.094-6.671l5.643,27.425L256.128,278.615z"/>
</svg>
