<?xml version="1.0"?><svg width="793.7007874015749" height="1122.5196850393702" xmlns="http://www.w3.org/2000/svg">

 <g>
  <title>Layer 1</title>
  <g id="layer1">
   <g id="g2119">
    <path fill="none" fill-rule="evenodd" stroke="#000000" stroke-width="12.5" stroke-linecap="round" stroke-miterlimit="4" id="path1825" d="m368.193817,70.168343c-8.766388,0.431007 -16.706787,5.281181 -21.098083,12.880669c-109.061325,188.916412 -218.122681,377.832855 -327.184017,566.749268c-4.618269,7.994324 -4.614269,17.839905 0,25.836975c4.614256,7.99707 13.126057,12.928589 22.358414,12.931091c217.215252,0.041992 434.430492,0.084045 651.645702,0.126038c9.210754,-0.005127 17.713501,-4.912292 22.333252,-12.880676c4.61969,-7.968384 4.647766,-17.790649 0.075623,-25.78656c-108.153931,-188.958435 -216.3078,-377.91687 -324.461731,-566.875313c-4.825439,-8.43602 -13.961945,-13.451904 -23.669159,-12.981491z"/>
    <path fill="#ffcc00" fill-rule="evenodd" stroke="#000000" stroke-width="29.443962" stroke-linecap="round" stroke-linejoin="round" stroke-miterlimit="4" id="path1937" d="m369.454163,97.038773c-108.756531,188.388443 -217.520065,376.772842 -326.276588,565.16124c216.610298,0.041931 433.220558,0.084167 649.830849,0.126038c-107.854187,-188.434784 -215.699188,-376.850983 -323.55426,-565.287277z"/>
   </g>
  </g>
  <g transform="matrix(0.925703, 0, 0, 0.925703, 31.3296, 35.7351)" id="g1196"/>
  <g transform="matrix(0.925703, 0, 0, 0.925703, -555.541, 27.814)" id="g4359">
   <path fill="#030303" fill-rule="nonzero" stroke="#000000" stroke-width="0" stroke-linecap="round" stroke-linejoin="round" stroke-miterlimit="4" id="path3656" d="m1050.082153,587.869263a46.868614,46.868614 0 1 1 -93.737122,0a46.868614,46.868614 0 1 1 93.737122,0z"/>
   <path fill="#000000" fill-rule="evenodd" stroke-width="95.75" stroke-linecap="round" stroke-miterlimit="4" id="path4355" d="m998.03125,214.59375c-26.416016,0.396744 -47.518677,22.114746 -47.15625,48.53125l7.5,200.875c0.644226,17.255127 3.826965,30.82486 18.739929,39.528839c14.912903,8.70401 28.357178,8.70401 43.270142,0c14.912903,-8.703979 18.095764,-22.273712 18.739929,-39.528839l7.5,-200.875c0.17749,-12.93576 -4.887207,-25.392822 -14.041016,-34.53476c-9.153687,-9.141937 -21.617188,-14.190628 -34.552734,-13.99649l0,0z"/>
  </g>
 </g>
</svg>