<?xml version="1.0" encoding="utf-8"?>
<!-- Generator: Adobe Illustrator 14.0.0, SVG Export Plug-In . SVG Version: 6.00 Build 43363)  -->
<!DOCTYPE svg PUBLIC "-//W3C//DTD SVG 1.1//EN" "http://www.w3.org/Graphics/SVG/1.1/DTD/svg11.dtd">
<svg version="1.1" id="Layer_1" xmlns="http://www.w3.org/2000/svg" xmlns:xlink="http://www.w3.org/1999/xlink" x="0px" y="0px"
	 width="512px" height="512px" viewBox="0 0 512 512" enable-background="new 0 0 512 512" xml:space="preserve">
<g>
	<rect x="196.529" y="93.027" width="118.938" height="30.834"/>
	<rect x="196.529" y="143.861" width="118.939" height="36.333"/>
	<polygon points="315.469,73.027 315.469,50.265 196.529,50.265 196.529,73.028 315.469,73.028 	"/>
	<path d="M315.468,243.416v-43.222H196.529v43.222h-50.164l109.634,109.826l11.844-11.864
		c11.312-34.643,38.703-62.076,73.319-73.447l24.472-24.515H315.468z"/>
	<path d="M271.052,421.009c-4.975,0.465-9.992,0.726-15.052,0.726c-42.451,0-82.361-16.531-112.38-46.55
		c-30.019-30.018-46.55-69.928-46.55-112.381c0-53.999,26.794-102.215,69.459-131.395V85.094
		C101.604,117.849,57.07,185.121,57.07,262.806c0,109.866,89.063,198.93,198.93,198.93c13.575,0,26.827-1.374,39.637-3.967
		c-8.442-8.484-15.56-18.262-21.009-28.982C273.334,426.242,272.149,423.644,271.052,421.009z"/>
	<path d="M452.926,291.124c1.319-9.25,2.004-18.704,2.004-28.318c0-77.687-44.533-144.959-109.461-177.712v46.314
		c42.567,29.113,69.461,77.27,69.461,131.396c0,1.968-0.049,3.928-0.12,5.883c2.674,0.941,5.321,1.979,7.939,3.124
		C433.777,276.632,443.96,283.178,452.926,291.124z"/>
	<path d="M444.629,326.143c-8.731-11.641-20.399-20.943-33.896-26.844c-10.373-4.534-21.822-7.066-33.868-7.066
		c-46.754,0-84.66,37.903-84.66,84.66c0,13.788,3.317,26.794,9.166,38.297c6.649,13.081,16.586,24.204,28.737,32.271
		c13.399,8.896,29.47,14.089,46.757,14.089c46.756,0,84.66-37.903,84.66-84.657C461.524,357.854,455.237,340.284,444.629,326.143z
		 M408.972,427.255l-18.171-18.17l-13.523-13.522l-31.695,31.695l-17.023-17.033l14.228-14.229l17.462-17.464l-31.693-31.69
		l17.033-17.023l31.688,31.684l11.927-11.929l19.755-19.759l17.037,17.026l-31.688,31.69l13.19,13.187L426,410.217L408.972,427.255z
		"/>
</g>
<g>
	<rect x="742.502" y="93.027" width="118.938" height="30.834"/>
	<rect x="742.502" y="143.861" width="118.939" height="36.333"/>
	<polygon points="861.441,73.027 861.441,50.265 742.502,50.265 742.502,73.028 861.441,73.028 	"/>
	<path d="M817.024,421.009c-4.975,0.465-9.992,0.726-15.052,0.726c-42.451,0-82.361-16.531-112.38-46.55
		c-30.019-30.018-46.55-69.928-46.55-112.381c0-53.999,26.794-102.215,69.459-131.395V85.094
		c-64.925,32.755-109.459,100.027-109.459,177.712c0,109.866,89.063,198.93,198.93,198.93c13.575,0,26.827-1.374,39.637-3.967
		c-8.442-8.484-15.56-18.262-21.009-28.982C819.307,426.242,818.122,423.644,817.024,421.009z"/>
	<path d="M998.898,291.124c1.319-9.25,2.004-18.704,2.004-28.318c0-77.687-44.533-144.959-109.461-177.712v46.314
		c42.567,29.113,69.461,77.27,69.461,131.396c0,1.968-0.049,3.928-0.12,5.883c2.674,0.941,5.321,1.979,7.939,3.124
		C979.75,276.632,989.933,283.178,998.898,291.124z"/>
	<path d="M990.602,326.143c-8.731-11.641-20.399-20.943-33.896-26.844c-10.373-4.534-21.822-7.066-33.868-7.066
		c-46.754,0-84.66,37.903-84.66,84.66c0,13.788,3.317,26.794,9.166,38.297c6.649,13.081,16.586,24.204,28.737,32.271
		c13.399,8.896,29.47,14.089,46.757,14.089c46.756,0,84.66-37.903,84.66-84.657C1007.497,357.854,1001.21,340.284,990.602,326.143z
		 M954.944,427.255l-18.171-18.17l-13.523-13.522l-31.695,31.695l-17.023-17.033l14.228-14.229l17.462-17.464l-31.693-31.69
		l17.033-17.023l31.688,31.684l11.927-11.929l19.755-19.759l17.037,17.026l-31.688,31.69l13.19,13.187l18.503,18.499
		L954.944,427.255z"/>
	<polygon points="692.338,243.416 742.502,243.416 742.502,200.194 861.44,200.194 861.44,243.416 911.606,243.416 801.972,353.242 
			"/>
</g>
</svg>
