<?xml version="1.0" encoding="utf-8"?>
<!-- Generator: Adobe Illustrator 14.0.0, SVG Export Plug-In . SVG Version: 6.00 Build 43363)  -->
<!DOCTYPE svg PUBLIC "-//W3C//DTD SVG 1.1//EN" "http://www.w3.org/Graphics/SVG/1.1/DTD/svg11.dtd">
<svg version="1.1" id="Layer_1" xmlns="http://www.w3.org/2000/svg" xmlns:xlink="http://www.w3.org/1999/xlink" x="0px" y="0px"
	 width="512px" height="512px" viewBox="0 0 512 512" enable-background="new 0 0 512 512" xml:space="preserve">
<rect x="196.529" y="93.027" width="118.938" height="30.834"/>
<rect x="196.529" y="143.861" width="118.939" height="36.333"/>
<polygon points="315.469,73.027 315.469,50.265 196.529,50.265 196.529,73.028 315.469,73.028 "/>
<path d="M315.468,243.416v-43.222H196.529v43.222h-50.164l109.634,109.826l11.844-11.864c11.312-34.643,38.703-62.076,73.319-73.447
	l24.472-24.515H315.468z"/>
<path d="M271.052,421.009c-4.975,0.465-9.992,0.726-15.052,0.726c-42.451,0-82.361-16.531-112.38-46.55
	c-30.019-30.018-46.55-69.928-46.55-112.381c0-53.999,26.794-102.215,69.459-131.395V85.094
	C101.604,117.849,57.07,185.121,57.07,262.806c0,109.866,89.063,198.93,198.93,198.93c13.575,0,26.827-1.374,39.637-3.967
	c-8.442-8.484-15.56-18.262-21.009-28.982C273.334,426.242,272.149,423.644,271.052,421.009z"/>
<path d="M452.926,291.124c1.319-9.25,2.004-18.704,2.004-28.318c0-77.687-44.533-144.959-109.461-177.712v46.314
	c42.567,29.113,69.461,77.27,69.461,131.396c0,1.968-0.049,3.928-0.12,5.883c2.674,0.941,5.321,1.979,7.939,3.124
	C433.777,276.632,443.96,283.178,452.926,291.124z"/>
<rect x="742.502" y="93.027" width="118.938" height="30.834"/>
<rect x="742.502" y="143.861" width="118.939" height="36.333"/>
<polygon points="861.441,73.027 861.441,50.265 742.502,50.265 742.502,73.028 861.441,73.028 "/>
<path d="M817.024,421.009c-4.975,0.465-9.992,0.726-15.052,0.726c-42.451,0-82.361-16.531-112.38-46.55
	c-30.019-30.018-46.55-69.928-46.55-112.381c0-53.999,26.794-102.215,69.459-131.395V85.094
	c-64.925,32.755-109.459,100.027-109.459,177.712c0,109.866,89.063,198.93,198.93,198.93c13.575,0,26.827-1.374,39.637-3.967
	c-8.442-8.484-15.56-18.262-21.009-28.982C819.307,426.242,818.122,423.644,817.024,421.009z"/>
<path d="M998.898,291.124c1.319-9.25,2.004-18.704,2.004-28.318c0-77.687-44.533-144.959-109.461-177.712v46.314
	c42.567,29.113,69.461,77.27,69.461,131.396c0,1.968-0.049,3.928-0.12,5.883c2.674,0.941,5.321,1.979,7.939,3.124
	C979.75,276.632,989.933,283.178,998.898,291.124z"/>
<polygon points="692.338,243.416 742.502,243.416 742.502,200.194 861.44,200.194 861.44,243.416 911.606,243.416 801.972,353.242 
	"/>
<path d="M376.863,292.232c-46.756,0-84.659,37.903-84.659,84.658c0,46.756,37.903,84.659,84.659,84.659s84.659-37.903,84.659-84.659
	C461.522,330.137,423.619,292.232,376.863,292.232z M362.46,422.492l-39.997-40.008l17.03-17.034l22.967,22.973l53.021-53.021
	l17.038,17.025L362.46,422.492z"/>
<path d="M922.838,292.232c-46.756,0-84.659,37.903-84.659,84.658c0,46.756,37.903,84.659,84.659,84.659s84.659-37.903,84.659-84.659
	C1007.497,330.137,969.594,292.232,922.838,292.232z M908.435,422.492l-39.997-40.008l17.03-17.034l22.967,22.973l53.021-53.021
	l17.038,17.025L908.435,422.492z"/>
</svg>
