<?xml version="1.0" encoding="utf-8"?>
<!-- Generator: Adobe Illustrator 16.0.0, SVG Export Plug-In . SVG Version: 6.00 Build 0)  -->
<!DOCTYPE svg PUBLIC "-//W3C//DTD SVG 1.1//EN" "http://www.w3.org/Graphics/SVG/1.1/DTD/svg11.dtd">
<svg version="1.1" id="Layer_1" xmlns="http://www.w3.org/2000/svg" xmlns:xlink="http://www.w3.org/1999/xlink" x="0px" y="0px"
	 width="512px" height="512px" viewBox="0 0 512 512" enable-background="new 0 0 512 512" xml:space="preserve">
<rect x="196.529" y="93.027" width="118.938" height="30.834"/>
<rect x="196.529" y="143.861" width="118.939" height="36.333"/>
<polygon points="315.469,73.027 315.469,50.265 196.529,50.265 196.529,73.028 315.469,73.028 "/>
<path d="M315.468,243.416v-43.222H196.529v43.222h-50.164l109.634,109.826l11.844-11.864c11.312-34.644,38.703-62.076,73.319-73.446
	l24.472-24.516H315.468z"/>
<path d="M271.052,421.009c-4.975,0.465-9.991,0.727-15.052,0.727c-42.451,0-82.361-16.531-112.38-46.55s-46.55-69.929-46.55-112.381
	c0-54,26.794-102.216,69.459-131.396V85.094C101.604,117.849,57.07,185.121,57.07,262.807c0,109.865,89.063,198.93,198.93,198.93
	c13.575,0,26.827-1.374,39.637-3.968c-8.441-8.483-15.56-18.262-21.009-28.981C273.334,426.242,272.148,423.644,271.052,421.009z"/>
<path d="M452.926,291.124c1.319-9.25,2.004-18.704,2.004-28.317c0-77.688-44.532-144.959-109.461-177.713v46.314
	c42.567,29.113,69.461,77.27,69.461,131.396c0,1.968-0.049,3.929-0.12,5.884c2.675,0.94,5.321,1.979,7.939,3.123
	C433.777,276.632,443.96,283.178,452.926,291.124z"/>
<path d="M376.863,292.232c-46.756,0-84.659,37.902-84.659,84.658s37.903,84.658,84.659,84.658s84.659-37.902,84.659-84.658
	C461.522,330.137,423.619,292.232,376.863,292.232z M362.46,422.492l-39.997-40.008l17.03-17.034l22.967,22.973l53.021-53.021
	l17.037,17.024L362.46,422.492z"/>
</svg>
