<?xml version="1.0" encoding="utf-8"?>

<!-- License Agreement at http://iconmonstr.com/license/ -->

<!DOCTYPE svg PUBLIC "-//W3C//DTD SVG 1.1//EN" "http://www.w3.org/Graphics/SVG/1.1/DTD/svg11.dtd">
<svg version="1.1" xmlns="http://www.w3.org/2000/svg" xmlns:xlink="http://www.w3.org/1999/xlink" x="0px" y="0px"
	 width="512px" height="512px" viewBox="0 0 512 512" enable-background="new 0 0 512 512" xml:space="preserve">
<path id="flag-22-icon" d="M221.284,266.991h-22.218V50h22.218V266.991z M295.082,273.116
	C295.07,272.8,295.084,273.238,295.082,273.116L295.082,273.116z M255.997,197.915c-6.739,0-13.36,0.509-19.828,1.483v36.751
	c0.329-0.045,0.597-0.052,0.76,0.004c4.727,1.644,12.964-3.333,16.589-5.758c4.162-2.788,6.497-6.205,11.781-5.743
	c5.629,0.488,11.214,1.429,16.687,2.811c2.226,0.562,16.428,4.266,13.526,7.468c0.04-0.043-7.004,3.561-5.359,4.12
	c-1.762-0.597-1.999,3.094-2.21,3.369c-0.378,0.5-2.037-0.53-2.116,0.197c0.447,0.351,0.939,0.62,1.473,0.81
	c1.088,1.203-7.032-2.858-2.68-2.744c3.284,0.086-0.674-2.604-2.119-2.738c-5.817-0.533-7.058-4.44-12.854,0.435
	c-2.143,1.8-3.001,4.721-4.957,6.574c-1.957,1.854-6.718,2.405-6.539,5.96c0.162,3.245,2.811,3.309,4.949,2.391
	c0.279-0.119,9.141,8.652,7.985,1.517c-0.298-1.872,0.177-4.47,0.385-6.318c0.241-2.056,2.184-2.744,2.168-4.4
	c-0.029-3.006,3.396-1.168,2.601-0.164c-1.174,1.501-2.777,6.764,0.646,7.039c1.318,0.103,5.355-2.482,5.852-0.673
	c-0.379-1.419-4.845,4.531-5.211,4.365c-1.617-0.727-0.724,2.975-1.215,3.771c-1.392,2.273-3.935,0.927-6.039,2.043
	c-0.313,0.171-5.471-1.229-5.177-0.355c-0.206-1.658-3.118-0.388-0.712-3.056c0.353-0.476,0.555-1.982-0.214-2.303
	c-3.736,1.867,0.121,6.099-5.053,6.576c-1.51,0.147-5.406,3.536-6.346,4.618c-1.078,1.255-7.712,3.885-8.449,3.812
	c3.871,0.418,4.971,5.02,2.769,7.834c-2.18,2.79-11.375-4.241-11.476,1.189c-0.058,3.312-3.479,6.161-1.956,9.155
	c0.345,0.664,5.213,2.235,5.198,2.237c1.897-0.563,9.488-0.451,8.237-4.45c-0.443-1.439,2.618-3.172,3.378-3.49
	c2.622-1.077,2.312-3.548,4.168-4.288c1.446-0.571,2.388,1.391,3.841,0.557c1.209-0.763,2.47-1.413,3.79-1.952
	c2.041-0.092,6.617,4.86,7.834,6.357c0.775,0.972,2.323,1.247,2.896,2.391c0.896,1.383-0.652,1.843-0.072,2.828
	c0.276,0.48,3.095-2.062,1.438-2.842c-1.388-0.687,0.812-1.16,1.859-0.206c1.365,1.228-3.651-5.169-3.459-3.399
	c-0.042-0.372-4.951-4.821-5.627-6.031c-1.032-1.866,6.043,2.423,6.249,2.571c1.644,1.2,4.686,2.01,4.959,4.293
	c0.317,2.731,2.567,4.325,5.142,3.367c0.878-0.323-0.472-1.687,0.693-2.529c2.05-1.475,3.806,0.264,5.712-1.142
	c-2.776,2.021-0.719,3.555,0.527,5.631c2.023,3.391,9.185,1.583,11.678,0.542c2.785-1.159,5.519,11.01-3.575,11.15
	c-6.007,0.097-9.414-1.494-14.571-2.225c-3.661-0.519-4.793,10.251-10.592,3.262c-1.638-1.958-6.751-4.062-9.273-4.187
	c1.082,0.188,0.917-4.165,0.745-4.938c-0.839-3.746-14.538-0.833-17.826-0.287c-2.113,0.351-10.215,0.685-11.107,1.411
	c-6.072,2.19-6.164,12.92-13.275,12.116c-3.177,0-8.742,9.674-9.689,11.787c-0.801,1.791,1.109,5.231,0.412,7.605
	c-0.358,2.254-1.867,4.46-2.025,6.729c-0.803,2.653,3.104,13.873,4.332,15.755c5.417,8.296,12.798,6.812,21.07,9.936
	c3.917,1.442,8.335-3.034,12.214-3.305c3.96-0.27,2.349,5.533,7.109,4.696c2.907-0.51,6.271-0.112,5.618,3.813
	c-0.647,3.003-2.616,6.458-0.606,8.705c2.49,2.787,4.208,3.362,5.94,6.95c0.699,1.445,3.313,8.271,2.063,9.779
	c-1.954,2.365-2.884,4.028-3.704,7.172c-0.981,3.762,6.445,7.592,5.86,12.598c-0.404,3.45,6.018,13.953,10.213,12.166
	c7.375-3.155,12.314-2.27,18.595-8.487c1.867-1.845,1.84-4.03,3.817-5.495c4.105-3.036,3.126-2.317,4.777-7.281
	c1.361-4.091,6.729-5.826,9.628-8.562c2.991-2.815,1.638-9.378,1.153-12.885c-0.828-6.02-1.024-6.716,2.579-12.3
	c2.582-3.994,4.574-7.826,8.11-11.098c1.338-1.235,10.265-20.763,6.757-21.572c-1.066-0.248-7.831,4.422-9.639,4.584
	c-3.1,0.27-3.197-3.647-5.396-5.268c-2.132-1.572-4.415-2.909-6.188-4.92c-3.132-3.54-4.644-9.397-7.395-13.509
	c-1.086-1.63-7.335-8.409-6.657-10.45c0.226,0.568,2.347,4.167,3.346,3.399c0.255-0.552,0.309-1.134,0.174-1.752
	c-0.065,1.078,5.579,7.656,7.276,8.606c2.973,1.683,3.527,6.846,6.607,9.247c7.409,5.772,2.25,15.306,12.661,7.209
	c1.861-1.447,6.049-8.216,7.936-8.231c1.152-0.01,1.85-4.2,2.648-5.049c1.665-1.775,2.517-10.115-1.623-9.918
	c-0.494,0.025-2.918-0.928-3.286-0.853c0.249-0.051-2.789,2.088-2.747,2.082c-1.578,0.222-1.08,1.178-2.569,0.238
	c-2.332-1.478-9.828-10.612-5.204-10.612c0.86,0.935,7.24,7.596,8.721,4.892c1.877-3.441,2.824,1.251,5.306,0.712
	c5.393-1.163,14.278-8.35,17.106,0.288c2.374,7.229,3.794,18.712,3.794,27.854c0,58.385-47.33,105.722-105.722,105.722
	c-30.051,0-57.165-12.546-76.414-32.674c-1.171-1.229-4.174-7.253-3.056-8.641c0.938-1.159,4.047-3.7,5.643-2.562
	c2.108,1.514,0.454-14.607,0.506-14.647c7.684-5.524,3.402-11.869-1.259-17.229c-1.748-2.012-11.45-11.904-12.568-10.086
	c0.359-1.188-0.603-5.991-0.957-7.28c-0.728-2.63-2.362-5.109-3.847-7.355c-3.392-5.127-5.631-7.106-7.271-13.08
	c-0.612-2.212-0.416-3.572-0.545-5.78c-0.123-2.027-1.851-0.658-2.06-1.882c-0.235-1.264-2.549-1.362-2.418-2.153
	c0.31-1.835,0.648-3.661,1.068-5.473c3.901-17.482,12.326-33.836,24.246-47.202c1.813-2.037,4.307-3.964,7.115-4.689v-35.801
	c-36.245,23.539-60.223,64.374-60.223,110.814c0,72.924,59.114,132.041,132.038,132.041c72.928,0,132.044-59.117,132.044-132.041
	C388.041,257.034,328.925,197.915,255.997,197.915z M303.016,280.104c-1.75-0.157-7.198-2.773-7.914,0.449
	c-0.173,1.841-7.03-0.031-5.999-1.872c1.317-2.301,1.728-9.852,6.35-6.726c0.752,0.507-0.384,0.768-0.37,1.161
	c0.127,6.299,4.796-3.74,2.751-2.251c0.518-0.517,2.842-1.823,3.746-1.932c0.862-0.12-1.12,1.781-1.122,1.768
	c0.312,2.64,2.327,4.159,6.095,5.517C312.236,278.277,305.561,280.338,303.016,280.104z M244.023,265.233
	c0.135,0.169,8.033-0.615,8.018-0.942c0-0.226-0.849-0.838-0.527-0.924c2.912-0.795-0.063-1.514-1.022-2.01
	c-0.115-0.473,0.83-2.51-0.803-2.291c-0.177,0.058-0.154-1.558-0.183-1.673c-0.258-1.03-0.104-1.952,0.472-2.76
	c0.192-0.269-1.694-0.852-1.74-0.55c-0.121-0.442,1.172-0.674,0.945-1.001c-2.212-3.164-3.811,3.83-3.817,3.842
	c-0.562,0.146,1.233-0.266,1.14-0.334c0.702,0.501-0.749,1.042-0.535,1.435c0.845,1.598,0.225,2.631,0.09,3.51
	c-0.155,0.997-1.095,0.456-1.576,0.989c-0.597,0.655,2.726,0.803,2.757,0.895C247.371,263.782,243.292,264.329,244.023,265.233z
	 M245.378,256.906c0.012-0.014,0.025-0.034,0.041-0.056C245.407,256.866,245.394,256.885,245.378,256.906z M272.636,288.633
	c0.006-0.019-5.104-0.256-4.497,0.801C269.698,292.123,272.235,290.78,272.636,288.633z M268.139,289.434
	C268.093,289.354,268.208,289.556,268.139,289.434L268.139,289.434z M373.896,64.774c0,0-13.974,12.321-32.35,12.321
	c-28.965,0-29.615-24.95-63.236-24.95c-18.179,0-35.129,8.447-42.308,14.599c0,6.075,0,104.157,0,104.157
	c10.188-7.061,25.673-14.484,42.425-14.484c31.752,0,36.203,23.732,64.507,23.732c18.279,0,30.962-11.708,30.962-11.708V64.774z"/>
</svg>
