<?xml version="1.0" encoding="utf-8"?>
<!-- Generator: Adobe Illustrator 16.0.0, SVG Export Plug-In . SVG Version: 6.00 Build 0)  -->
<!DOCTYPE svg PUBLIC "-//W3C//DTD SVG 1.1//EN" "http://www.w3.org/Graphics/SVG/1.1/DTD/svg11.dtd">
<svg version="1.1" id="Layer_1" xmlns="http://www.w3.org/2000/svg" xmlns:xlink="http://www.w3.org/1999/xlink" x="0px" y="0px"
	 width="512px" height="512px" viewBox="0 0 512 512" enable-background="new 0 0 512 512" xml:space="preserve">
<path id="info-6-icon" opacity="0.2" d="M256,90.002c91.74,0,166,74.241,166,165.998c0,91.739-74.245,165.998-166,165.998
	c-91.738,0-166-74.242-166-165.998C90,164.259,164.243,90.002,256,90.002 M256,50.002C142.229,50.002,50,142.228,50,256
	c0,113.77,92.229,205.998,206,205.998c113.77,0,206-92.229,206-205.998C462,142.228,369.77,50.002,256,50.002L256,50.002z
	 M252.566,371.809c-28.21,9.912-51.466-1.455-46.801-28.547c4.667-27.099,31.436-85.109,35.255-96.08
	c3.816-10.97-3.502-13.977-11.346-9.513c-4.524,2.61-11.248,7.841-17.02,12.925c-1.601-3.223-3.852-6.906-5.542-10.433
	c9.419-9.439,25.164-22.094,43.803-26.681c22.271-5.497,59.492,3.29,43.494,45.858c-11.425,30.34-19.503,51.276-24.595,66.868
	c-5.088,15.599,0.955,18.868,9.863,12.791c6.959-4.751,14.372-11.214,19.807-16.226c2.515,4.086,3.318,5.389,5.806,10.084
	C295.857,342.523,271.182,365.15,252.566,371.809z M311.016,184.127c-12.795,10.891-31.76,10.655-42.369-0.532
	c-10.607-11.181-8.838-29.076,3.955-39.969c12.793-10.89,31.762-10.654,42.369,0.525
	C325.577,155.337,323.809,173.231,311.016,184.127z"/>
</svg>
