<?xml version="1.0" encoding="utf-8"?>
<!-- Generator: Adobe Illustrator 16.0.0, SVG Export Plug-In . SVG Version: 6.00 Build 0)  -->
<!DOCTYPE svg PUBLIC "-//W3C//DTD SVG 1.1//EN" "http://www.w3.org/Graphics/SVG/1.1/DTD/svg11.dtd">
<svg version="1.1" id="Layer_1" xmlns="http://www.w3.org/2000/svg" xmlns:xlink="http://www.w3.org/1999/xlink" x="0px" y="0px"
	 width="512px" height="512px" viewBox="0 0 512 512" enable-background="new 0 0 512 512" xml:space="preserve">
<radialGradient id="SVGID_1_" cx="255.75" cy="255" r="187.1261" gradientUnits="userSpaceOnUse">
	<stop  offset="0.5842" style="stop-color:#FFFFFF"/>
	<stop  offset="1" style="stop-color:#B6B6B6"/>
</radialGradient>
<ellipse fill="url(#SVGID_1_)" stroke="#FFFFFF" stroke-miterlimit="10" cx="255.75" cy="255" rx="187.75" ry="186.5"/>
<path id="rewind-3-icon" d="M256,90c-91.742,0-166,74.245-166,166c0,91.741,74.245,166,166,166c91.742,0,166-74.245,166-166
	C422,164.259,347.755,90,256,90z M256,50c113.771,0,206,92.229,206,206c0,113.771-92.229,206-206,206c-113.771,0-206-92.229-206-206
	C50,142.229,142.229,50,256,50z M355.6,179.103V332.9l-111.24-76.898L355.6,179.103z M133.12,256.002l111.24,76.896V179.103
	L133.12,256.002z"/>
</svg>
