<?xml version="1.0" encoding="utf-8"?>
<!-- Generator: Adobe Illustrator 16.0.0, SVG Export Plug-In . SVG Version: 6.00 Build 0)  -->
<!DOCTYPE svg PUBLIC "-//W3C//DTD SVG 1.1//EN" "http://www.w3.org/Graphics/SVG/1.1/DTD/svg11.dtd">
<svg version="1.1" id="Layer_1" xmlns="http://www.w3.org/2000/svg" xmlns:xlink="http://www.w3.org/1999/xlink" x="0px" y="0px"
	 width="512px" height="512px" viewBox="0 0 512 512" enable-background="new 0 0 512 512" xml:space="preserve">
<path id="coin-10-icon" fill="#FFFFFF" d="M386.638,262.27c-41.621,0-75.361,33.739-75.361,75.362
	c0,41.621,33.74,75.361,75.361,75.361c41.623,0,75.362-33.74,75.362-75.361C462,296.009,428.261,262.27,386.638,262.27z
	 M393.548,372.938v8.787h-12.572v-7.857c-6.034-0.518-14.003-2.705-19.87-5.939l4.157-14.488c5.444,2.125,12.938,4.697,19.411,4.697
	c1.432,0,2.811-0.125,4.107-0.408c6.271-1.369,7.854-7.002,0.474-10.186c-6.238-2.799-27.7-5.727-27.7-23.676
	c0-7.436,5.573-17.654,19.421-20.68v-8.916h12.572v8.184c5.385,0.369,10.881,1.365,17.229,3.35
	c-0.637,2.771-3.379,14.805-3.379,14.805c-4.087-1.391-10.588-3.75-17.022-3.75c-0.468,0-0.935,0.015-1.401,0.039
	c-8.496,0.478-9.104,6.683-3.377,9.55c11.751,5.312,28.771,9.831,28.771,25.68C414.384,364.374,404.842,371.348,393.548,372.938z
	 M220.538,293.794v-14.875c4.604,4.549,10.52,8.592,17.644,12.054c14.814,7.192,33.925,11.393,54.269,11.989
	c-3.237,8.769-5.278,18.106-5.938,27.82C249.216,328.193,220.538,312.622,220.538,293.794z M220.538,254.419v-14.873
	c4.604,4.545,10.52,8.59,17.644,12.049c16.034,7.787,37.097,12.074,59.312,12.074c7.935,0,15.718-0.558,23.182-1.612
	c-9.521,8.317-17.46,18.401-23.304,29.733C254.927,291.759,220.538,275.04,220.538,254.419z M220.538,175.714v-14.875
	c4.604,4.547,10.52,8.592,17.644,12.053c16.034,7.785,37.097,12.072,59.312,12.072c22.219,0,43.284-4.287,59.312-12.072
	c7.124-3.461,13.042-7.506,17.646-12.053v14.875c0,20.641-34.455,37.373-76.958,37.373
	C254.993,213.087,220.538,196.354,220.538,175.714z M297.494,173.757c42.503,0,76.958-16.732,76.958-37.371
	c0-20.645-34.455-37.379-76.958-37.379c-42.501,0-76.956,16.734-76.956,37.379C220.538,157.024,254.993,173.757,297.494,173.757z
	 M299.423,141.028c-4.839-1.604-21.493-3.301-21.493-13.523c0.002-4.236,4.332-10.051,15.072-11.752l0.002-5.082l9.756,0.018
	l-0.001,4.66c4.183,0.223,8.446,0.791,13.369,1.932c-0.492,1.58-2.621,8.428-2.621,8.428c-3.172-0.797-8.211-2.148-13.203-2.158
	c-0.362,0-0.728,0.008-1.095,0.021c-6.592,0.262-7.064,3.795-2.622,5.434c9.118,3.043,22.324,5.637,22.32,14.664
	c0.013,6.979-7.39,10.941-16.154,11.83l-0.003,5.004l-9.757-0.018v-4.477c-4.679-0.301-10.862-1.557-15.417-3.406l3.229-8.25
	c4.227,1.219,10.043,2.693,15.066,2.703c1.105,0,2.178-0.068,3.184-0.227C303.925,146.058,305.15,142.851,299.423,141.028z
	 M220.538,215.042v-14.873c4.604,4.547,10.52,8.594,17.644,12.053c16.034,7.783,37.097,12.072,59.312,12.072
	c22.219,0,43.284-4.289,59.312-12.072c7.124-3.459,13.042-7.506,17.646-12.053v14.873c0,20.643-34.455,37.375-76.958,37.375
	C254.993,252.417,220.538,235.685,220.538,215.042z M186.269,290.973c7.123-3.462,13.04-7.505,17.646-12.054v14.875
	c0,20.642-34.455,37.373-76.958,37.373C84.456,331.167,50,314.436,50,293.794v-14.875c4.604,4.549,10.519,8.592,17.644,12.054
	c16.031,7.784,37.097,12.071,59.313,12.071C149.175,303.044,170.239,298.757,186.269,290.973z M126.957,217.089
	C84.456,217.089,50,233.821,50,254.466c0,20.64,34.456,37.371,76.957,37.371c42.503,0,76.958-16.731,76.958-37.371
	C203.915,233.821,169.46,217.089,126.957,217.089z M132.214,273.577l-0.003,5.006l-9.755-0.019v-4.477
	c-4.681-0.301-10.865-1.557-15.42-3.408l3.229-8.246c4.227,1.217,10.042,2.691,15.066,2.701c1.108,0.002,2.177-0.068,3.187-0.229
	c4.866-0.771,6.093-3.977,0.365-5.799c-4.838-1.604-21.493-3.301-21.491-13.523c0-4.236,4.327-10.051,15.072-11.752l0.001-5.082
	l9.756,0.016v4.662c4.18,0.221,8.445,0.791,13.367,1.93c-0.491,1.582-2.621,8.43-2.621,8.43c-3.171-0.797-8.21-2.146-13.202-2.158
	c-0.364,0-0.729,0.008-1.095,0.023c-6.592,0.258-7.067,3.793-2.622,5.432c9.118,3.043,22.324,5.637,22.32,14.664
	C148.382,268.729,140.978,272.689,132.214,273.577z M220.538,333.124v-14.875c4.604,4.547,10.52,8.594,17.644,12.053
	c13.33,6.474,30.14,10.519,48.194,11.701c0.427,9.896,2.291,19.424,5.394,28.381C251.944,368.96,220.538,352.827,220.538,333.124z
	 M316.136,408.984c-5.971,0.724-12.211,1.111-18.642,1.111c-42.501,0-76.956-16.732-76.956-37.375V357.58
	c4.604,4.547,10.52,8.592,17.644,12.051c15.79,7.666,36.458,11.934,58.298,12.061C301.478,391.876,308.149,401.096,316.136,408.984z
	 M186.269,369.632c7.123-3.459,13.04-7.504,17.646-12.051v15.142c0,20.643-34.455,37.375-76.958,37.375
	C84.456,410.098,50,393.364,50,372.723v-15.142c4.604,4.547,10.519,8.592,17.644,12.051c16.031,7.785,37.097,12.074,59.313,12.074
	C149.175,381.706,170.239,377.417,186.269,369.632z M186.269,330.302c7.123-3.459,13.04-7.506,17.646-12.053v14.875
	c0,20.642-34.455,37.373-76.958,37.373C84.456,370.497,50,353.766,50,333.124v-14.875c4.604,4.547,10.519,8.594,17.644,12.053
	c16.031,7.785,37.097,12.072,59.313,12.072C149.175,342.374,170.239,338.087,186.269,330.302z"/>
</svg>
