<?xml version="1.0" encoding="utf-8"?>
<!-- Generator: Adobe Illustrator 16.0.0, SVG Export Plug-In . SVG Version: 6.00 Build 0)  -->
<!DOCTYPE svg PUBLIC "-//W3C//DTD SVG 1.1//EN" "http://www.w3.org/Graphics/SVG/1.1/DTD/svg11.dtd">
<svg version="1.1" id="Layer_1" xmlns="http://www.w3.org/2000/svg" xmlns:xlink="http://www.w3.org/1999/xlink" x="0px" y="0px"
	 width="400px" height="80px" viewBox="0 0 400 80" enable-background="new 0 0 400 80" xml:space="preserve">
<g>
	<path fill="#FFFFFF" d="M74.046,12.359C59.414-2.284,35.609-2.284,20.974,12.354c-14.631,14.633-14.631,38.452,0,53.086
		c14.636,14.641,38.448,14.639,53.073-0.003C88.698,50.806,88.698,26.987,74.046,12.359z"/>
	<g>
		<g>
			<path fill="#242C61" d="M162.052,15.077c-1.203,0-2.31,0.151-3.269,0.452c-0.95,0.294-1.843,0.703-2.648,1.22
				c-0.795,0.516-1.512,1.109-2.111,1.758c-0.161,0.164-0.313,0.342-0.469,0.517v-3.338h-8.059v30.603h8.059V29.141
				c0-2.11,0.553-3.759,1.641-4.904c1.091-1.15,2.493-1.71,4.267-1.71c1.807,0,3.154,0.535,4.113,1.638
				c0.968,1.109,1.465,2.747,1.465,4.865v17.259h8.062v-19.3c0-3.584-0.974-6.492-2.883-8.638
				C168.3,16.179,165.552,15.077,162.052,15.077z"/>
			<path fill="#242C61" d="M191.755,15.301c-2.455,0-4.582,0.229-6.325,0.683c-1.73,0.455-3.448,1.065-5.097,1.813l-0.535,0.247
				l2.238,6.585l0.638-0.262c1.294-0.54,2.596-0.977,3.851-1.305c1.237-0.321,2.68-0.479,4.287-0.479
				c2.149,0,3.813,0.485,4.932,1.454c1.038,0.898,1.577,2.162,1.634,3.867c-0.917-0.266-1.864-0.487-2.829-0.658
				c-1.264-0.225-2.826-0.341-4.635-0.341c-1.748,0-3.397,0.201-4.907,0.604c-1.537,0.407-2.88,1.043-4,1.886
				c-1.13,0.853-2.027,1.938-2.657,3.227c-0.634,1.288-0.954,2.812-0.954,4.531v0.111c0,1.574,0.313,2.992,0.928,4.204
				c0.603,1.207,1.432,2.236,2.445,3.043c1.001,0.805,2.188,1.424,3.517,1.834c1.313,0.404,2.722,0.613,4.191,0.613
				c2.313,0,4.317-0.434,5.956-1.292c1.088-0.577,2.061-1.235,2.889-1.987v2.666h7.952V28.326c0-4.08-1.126-7.306-3.349-9.583
				C199.706,16.455,196.285,15.301,191.755,15.301z M190.365,40.621c-1.455,0-2.692-0.338-3.672-1.001
				c-0.901-0.619-1.347-1.499-1.347-2.687v-0.112c0-1.196,0.488-2.11,1.492-2.805c1.073-0.733,2.611-1.105,4.582-1.105
				c1.248,0,2.454,0.106,3.569,0.315c0.943,0.185,1.787,0.404,2.504,0.652v1.22c0,0.822-0.171,1.572-0.507,2.233
				c-0.34,0.667-0.84,1.251-1.451,1.727c-0.648,0.488-1.413,0.874-2.282,1.151C192.376,40.482,191.403,40.621,190.365,40.621z"/>
			<path fill="#242C61" d="M246.79,36.227l-7.861-20.541h-8.562l12.483,29.953c-0.481,1.052-0.974,1.783-1.474,2.161
				c-0.521,0.402-1.172,0.594-2.001,0.594c-0.633,0-1.248-0.099-1.831-0.279c-0.616-0.188-1.215-0.446-1.809-0.76l-0.6-0.318
				l-2.811,6.169l0.53,0.282c1.062,0.574,2.18,1.031,3.322,1.361c1.147,0.324,2.469,0.492,3.924,0.492
				c1.24,0,2.37-0.158,3.357-0.474c1.002-0.322,1.933-0.839,2.772-1.532c0.825-0.695,1.585-1.596,2.249-2.689
				c0.645-1.063,1.275-2.386,1.881-3.932l11.995-31.028h-8.387L246.79,36.227z"/>
			<path fill="#E98025" d="M299.385,36.363c-1.027,1.031-2.134,1.885-3.279,2.533c-1.095,0.627-2.402,0.947-3.875,0.947
				c-1.195,0-2.298-0.23-3.286-0.69c-0.984-0.463-1.854-1.095-2.573-1.877c-0.718-0.786-1.278-1.724-1.679-2.791
				c-0.394-1.068-0.592-2.228-0.592-3.442V30.93c0-1.172,0.198-2.308,0.592-3.383c0.4-1.067,0.945-1.997,1.633-2.766
				c0.684-0.764,1.509-1.385,2.466-1.849c0.942-0.451,1.985-0.683,3.104-0.683c1.58,0,2.917,0.314,3.978,0.936
				c1.114,0.653,2.172,1.506,3.168,2.531l0.477,0.487l5.023-5.422l-0.396-0.438c-1.411-1.569-3.099-2.849-4.989-3.808
				c-1.915-0.968-4.343-1.458-7.203-1.458c-2.267,0-4.391,0.432-6.34,1.275c-1.936,0.843-3.639,2.005-5.051,3.441
				c-1.412,1.442-2.535,3.162-3.329,5.099c-0.786,1.934-1.191,4.008-1.191,6.151v0.115c0,2.148,0.405,4.209,1.191,6.131
				c0.798,1.92,1.917,3.615,3.329,5.039c1.419,1.422,3.107,2.558,5.027,3.382c1.92,0.829,4.046,1.249,6.307,1.249
				c2.942,0,5.428-0.545,7.363-1.606c1.904-1.052,3.63-2.434,5.107-4.109l0.416-0.454l-4.952-4.873L299.385,36.363z"/>
			<path fill="#E98025" d="M335.185,19.738c-1.44-1.444-3.178-2.596-5.154-3.416c-1.965-0.827-4.161-1.245-6.492-1.245
				c-2.337,0-4.519,0.432-6.495,1.273c-1.981,0.845-3.706,2-5.146,3.442c-1.442,1.438-2.588,3.139-3.412,5.057
				c-0.825,1.923-1.246,4.006-1.246,6.193v0.115c0,2.148,0.409,4.213,1.208,6.133c0.813,1.92,1.954,3.619,3.401,5.037
				c1.438,1.424,3.168,2.561,5.146,3.39c1.97,0.821,4.138,1.241,6.432,1.241c2.325,0,4.532-0.43,6.531-1.277
				c1.994-0.838,3.727-1.996,5.169-3.435c1.435-1.441,2.589-3.143,3.413-5.062c0.832-1.922,1.245-3.99,1.245-6.141V30.93
				c0-2.183-0.413-4.259-1.214-6.162C337.765,22.871,336.627,21.175,335.185,19.738z M323.538,39.843
				c-1.188,0-2.297-0.23-3.291-0.69c-0.993-0.463-1.875-1.103-2.612-1.904c-0.725-0.81-1.313-1.749-1.717-2.803
				c-0.412-1.049-0.622-2.191-0.622-3.403V30.93c0-1.179,0.194-2.319,0.568-3.392c0.374-1.059,0.927-1.982,1.634-2.748
				c0.709-0.767,1.58-1.39,2.584-1.849c0.992-0.46,2.118-0.692,3.344-0.692c1.229,0,2.355,0.232,3.349,0.692
				c1.007,0.459,1.885,1.091,2.618,1.88c0.722,0.785,1.31,1.726,1.714,2.791c0.408,1.073,0.619,2.225,0.619,3.432v0.115
				c0,1.174-0.188,2.307-0.565,3.365c-0.383,1.039-0.928,1.968-1.637,2.756c-0.715,0.778-1.581,1.406-2.577,1.874
				C325.941,39.612,324.801,39.843,323.538,39.843z"/>
			<path fill="#E98025" d="M387.099,18.194c-1.927-2.066-4.645-3.117-8.045-3.117c-2.329,0-4.373,0.511-6.083,1.518
				c-1.412,0.832-2.675,1.903-3.783,3.189c-0.786-1.277-1.812-2.342-3.099-3.171c-1.551-1.017-3.467-1.536-5.691-1.536
				c-1.157,0-2.242,0.151-3.199,0.452c-0.962,0.294-1.844,0.712-2.607,1.232c-0.756,0.509-1.438,1.085-2.02,1.713
				c-0.157,0.162-0.294,0.326-0.438,0.489v-3.277h-8.059v30.603h8.059V29.192c0-2.113,0.522-3.778,1.558-4.946
				c1.022-1.156,2.349-1.719,4.045-1.719s2.968,0.524,3.877,1.599c0.93,1.092,1.399,2.726,1.399,4.85v17.313h8.058V29.141
				c0-2.185,0.524-3.856,1.569-4.96c1.039-1.116,2.356-1.654,4.04-1.654c1.687,0,2.961,0.524,3.87,1.599
				c0.924,1.092,1.401,2.747,1.401,4.904v17.259H390V26.933C390,23.191,389.027,20.253,387.099,18.194z"/>
			<g>
				<rect x="133.139" y="15.686" fill="#242C61" width="8.066" height="30.603"/>
				<path fill="#242C61" d="M141.637,8.527c0-2.465-2-4.465-4.47-4.465c-2.466,0-4.459,2-4.459,4.465
					c0,2.463,1.994,4.462,4.459,4.462C139.636,12.989,141.637,10.991,141.637,8.527z"/>
			</g>
			<path fill="#E98025" d="M272.209,42.495c0-2.47-2.001-4.466-4.459-4.466c-2.471,0-4.475,1.997-4.475,4.466
				c0,2.459,2.004,4.463,4.475,4.463C270.208,46.958,272.209,44.954,272.209,42.495z"/>
			<path fill="#242C61" d="M126.45,27.606c-0.748-0.815-1.66-1.528-2.683-2.123c-0.641-0.367-1.343-0.71-2.076-1.023l-0.452-0.189
				l0.408-0.266c0.349-0.223,0.7-0.469,1.04-0.738c0.755-0.572,1.416-1.25,1.965-2.008c0.554-0.758,1.008-1.652,1.352-2.653
				c0.348-1.004,0.523-2.169,0.523-3.478v-0.116c0-2.825-0.978-5.233-2.91-7.16c-2.5-2.517-6.237-3.79-11.085-3.79H93.576v42.227
				h19.544c2.314,0,4.452-0.251,6.361-0.755c1.932-0.502,3.607-1.249,4.978-2.216c1.389-0.985,2.474-2.229,3.236-3.701
				c0.749-1.472,1.142-3.191,1.142-5.106v-0.114c0-1.463-0.21-2.762-0.623-3.866C127.806,29.417,127.215,28.431,126.45,27.606z
				 M101.642,21.24v-9.625v-0.254h0.257h9.749c2.241,0,3.97,0.432,5.127,1.301c1.133,0.845,1.683,2,1.683,3.532v0.116
				c0,1.757-0.626,3.019-1.924,3.866c-1.336,0.885-3.16,1.323-5.429,1.323h-9.206h-0.257V21.24z M120.771,33.748
				c0,1.752-0.641,3.029-1.943,3.901c-1.333,0.892-3.222,1.345-5.592,1.345h-11.337h-0.257v-0.255v-9.982v-0.261h0.257h10.806
				c2.76,0,4.833,0.467,6.15,1.38c1.282,0.883,1.916,2.115,1.916,3.754V33.748z"/>
			<path fill="#242C61" d="M227.416,15.133c-2.734-0.116-5.046,0.543-6.863,1.974c-1.131,0.877-2.104,1.952-2.901,3.209v-4.63
				h-8.062v30.603h8.062V34.491c0-1.852,0.229-3.492,0.691-4.887c0.446-1.362,1.091-2.507,1.907-3.401
				c0.825-0.887,1.81-1.558,2.94-2.002c1.138-0.446,2.416-0.675,3.812-0.675h0.993v-8.366L227.416,15.133z"/>
		</g>
		<g>
			<path fill="#242C61" d="M93.977,68.786l2.103-0.193l-0.019,0.556c0,0.621,0.13,1.187,0.42,1.702
				c0.286,0.512,0.755,0.912,1.409,1.191c0.657,0.285,1.441,0.422,2.342,0.422c1.287,0,2.269-0.283,2.94-0.844
				c0.679-0.56,1.012-1.203,1.012-1.926c0-0.502-0.175-0.962-0.532-1.375c-0.369-0.414-1.361-0.967-2.991-1.668
				c-1.268-0.546-2.119-0.963-2.581-1.256c-0.717-0.475-1.256-0.993-1.599-1.55c-0.34-0.556-0.512-1.192-0.512-1.911
				c0-0.824,0.221-1.562,0.674-2.227c0.46-0.666,1.117-1.173,1.99-1.521c0.866-0.351,1.852-0.53,2.947-0.53
				c1.302,0,2.405,0.222,3.301,0.66c0.894,0.438,1.546,1.021,1.952,1.749c0.409,0.732,0.615,1.428,0.615,2.091
				c0,0.065-0.008,0.175-0.016,0.331l-2.064,0.158c0-0.447-0.042-0.804-0.123-1.054c-0.149-0.448-0.377-0.827-0.68-1.136
				c-0.305-0.299-0.733-0.547-1.259-0.733c-0.535-0.183-1.138-0.282-1.807-0.282c-1.167,0-2.072,0.268-2.721,0.793
				c-0.506,0.4-0.741,0.934-0.741,1.594c0,0.395,0.099,0.744,0.301,1.058c0.207,0.311,0.576,0.612,1.106,0.913
				c0.378,0.213,1.287,0.631,2.703,1.256c1.157,0.514,1.951,0.916,2.382,1.207c0.586,0.386,1.026,0.851,1.343,1.404
				c0.317,0.555,0.477,1.174,0.477,1.88c0,0.864-0.267,1.668-0.797,2.399c-0.531,0.733-1.26,1.299-2.184,1.697
				c-0.944,0.408-2.012,0.605-3.214,0.605c-1.817,0-3.298-0.395-4.443-1.188C94.557,72.265,93.984,70.841,93.977,68.786z"/>
			<path fill="#242C61" d="M108.54,73.973l3.348-16.04h1.978l-1.275,6.166c0.733-0.723,1.412-1.231,2.053-1.545
				c0.634-0.308,1.288-0.459,1.963-0.459c0.962,0,1.705,0.25,2.24,0.756c0.535,0.509,0.806,1.177,0.806,2.007
				c0,0.41-0.124,1.161-0.358,2.254l-1.432,6.861h-1.98l1.477-7.036c0.214-1.018,0.313-1.664,0.313-1.924
				c0-0.376-0.126-0.689-0.394-0.931c-0.259-0.241-0.642-0.36-1.13-0.36c-0.722,0-1.401,0.186-2.05,0.563
				c-0.653,0.374-1.162,0.892-1.523,1.54c-0.372,0.654-0.706,1.709-1.016,3.158l-1.042,4.989H108.54z"/>
			<path fill="#242C61" d="M129.291,72.53c-0.695,0.588-1.352,1.025-1.989,1.294c-0.638,0.276-1.309,0.412-2.035,0.412
				c-1.064,0-1.942-0.314-2.591-0.946c-0.657-0.628-0.985-1.439-0.985-2.424c0-0.652,0.149-1.228,0.446-1.726
				c0.298-0.496,0.684-0.896,1.177-1.198c0.488-0.306,1.08-0.521,1.79-0.652c0.447-0.085,1.286-0.159,2.535-0.211
				c1.241-0.049,2.134-0.18,2.68-0.393c0.145-0.537,0.225-0.985,0.225-1.346c0-0.458-0.168-0.818-0.504-1.082
				c-0.465-0.365-1.125-0.551-2.015-0.551c-0.828,0-1.508,0.186-2.039,0.556c-0.534,0.366-0.913,0.89-1.152,1.571l-2.001-0.18
				c0.401-1.15,1.054-2.034,1.939-2.647c0.886-0.61,2.004-0.913,3.348-0.913c1.443,0,2.573,0.339,3.417,1.023
				c0.642,0.512,0.962,1.176,0.962,1.993c0,0.62-0.092,1.336-0.271,2.157l-0.646,2.887c-0.209,0.917-0.304,1.665-0.304,2.242
				c0,0.363,0.076,0.889,0.24,1.575h-2.004C129.401,73.593,129.325,73.116,129.291,72.53z M130.02,68.089
				c-0.283,0.108-0.576,0.193-0.889,0.246c-0.324,0.062-0.855,0.124-1.596,0.188c-1.156,0.099-1.961,0.233-2.447,0.389
				c-0.465,0.159-0.824,0.412-1.072,0.749c-0.233,0.343-0.355,0.724-0.355,1.136c0,0.56,0.186,1.013,0.573,1.37
				c0.389,0.357,0.931,0.535,1.638,0.535c0.657,0,1.282-0.172,1.894-0.518c0.602-0.346,1.083-0.828,1.436-1.453
				C129.549,70.115,129.821,69.23,130.02,68.089z"/>
			<path fill="#242C61" d="M134.356,73.973l2.436-11.624h1.748l-0.493,2.381c0.596-0.899,1.185-1.562,1.756-1.998
				c0.572-0.424,1.153-0.637,1.756-0.637c0.396,0,0.882,0.139,1.455,0.42l-0.814,1.844c-0.343-0.251-0.714-0.375-1.122-0.375
				c-0.695,0-1.409,0.386-2.134,1.16c-0.729,0.775-1.302,2.16-1.722,4.17l-0.977,4.659H134.356z"/>
			<path fill="#242C61" d="M141.3,78.426l3.355-16.077h1.825l-0.335,1.625c0.679-0.708,1.286-1.199,1.817-1.475
				c0.538-0.27,1.104-0.404,1.707-0.404c1.104,0,2.026,0.402,2.755,1.205c0.726,0.808,1.096,1.96,1.096,3.465
				c0,1.208-0.206,2.312-0.603,3.305c-0.401,1-0.901,1.803-1.477,2.402c-0.589,0.607-1.181,1.054-1.771,1.34
				c-0.603,0.281-1.218,0.425-1.837,0.425c-1.393,0-2.477-0.71-3.244-2.124l-1.31,6.313H141.3z M145.213,69.225
				c0,0.868,0.065,1.47,0.183,1.804c0.187,0.479,0.489,0.861,0.905,1.152c0.408,0.291,0.889,0.434,1.436,0.434
				c1.142,0,2.065-0.641,2.764-1.916c0.698-1.282,1.045-2.589,1.045-3.921c0-0.991-0.233-1.749-0.702-2.287
				c-0.47-0.54-1.058-0.802-1.757-0.802c-0.503,0-0.974,0.133-1.405,0.399c-0.427,0.267-0.824,0.665-1.195,1.192
				c-0.374,0.529-0.667,1.174-0.915,1.946C145.331,67.985,145.213,68.659,145.213,69.225z"/>
			<path fill="#242C61" d="M162.07,73.973l3.356-16.04h6.699c1.161,0,2.031,0.135,2.616,0.399c0.58,0.269,1.06,0.723,1.435,1.366
				c0.378,0.647,0.569,1.369,0.569,2.172c0,0.668-0.13,1.342-0.404,2.027c-0.268,0.688-0.611,1.252-1.021,1.696
				c-0.413,0.446-0.832,0.779-1.255,1.006c-0.42,0.224-0.871,0.396-1.352,0.503c-1.038,0.24-2.072,0.358-3.119,0.358h-4.019
				l-1.359,6.512H162.07z M165.956,65.646h3.532c1.378,0,2.385-0.146,3.027-0.443c0.637-0.295,1.153-0.744,1.538-1.346
				c0.385-0.609,0.583-1.253,0.583-1.93c0-0.525-0.106-0.955-0.312-1.287c-0.204-0.328-0.489-0.574-0.86-0.73
				c-0.375-0.158-1.088-0.235-2.146-0.235h-4.119L165.956,65.646z"/>
			<path fill="#242C61" d="M177.245,73.973l2.436-11.624h1.749l-0.498,2.381c0.604-0.899,1.188-1.562,1.764-1.998
				c0.565-0.424,1.153-0.637,1.757-0.637c0.388,0,0.876,0.139,1.454,0.42l-0.813,1.844c-0.343-0.251-0.722-0.375-1.125-0.375
				c-0.695,0-1.406,0.386-2.131,1.16c-0.729,0.775-1.301,2.16-1.714,4.17l-0.997,4.659H177.245z"/>
			<path fill="#242C61" d="M185.078,73.973l2.439-11.624h1.968l-2.419,11.624H185.078z M187.971,60.173l0.47-2.24h1.974l-0.469,2.24
				H187.971z"/>
			<path fill="#242C61" d="M198.605,69.738l1.982,0.21c-0.501,1.451-1.206,2.524-2.115,3.232c-0.919,0.705-1.965,1.056-3.127,1.056
				c-1.263,0-2.281-0.409-3.068-1.225c-0.791-0.821-1.179-1.96-1.179-3.427c0-1.266,0.251-2.515,0.75-3.74
				c0.505-1.229,1.234-2.161,2.169-2.799c0.939-0.634,2-0.951,3.211-0.951c1.244,0,2.24,0.348,2.961,1.054
				c0.737,0.703,1.096,1.632,1.096,2.795l-1.943,0.126c-0.012-0.736-0.229-1.308-0.645-1.726c-0.421-0.413-0.966-0.622-1.656-0.622
				c-0.796,0-1.485,0.252-2.062,0.759c-0.588,0.497-1.046,1.265-1.382,2.286c-0.335,1.028-0.5,2.013-0.5,2.96
				c0,0.998,0.226,1.735,0.664,2.235c0.432,0.496,0.97,0.74,1.623,0.74c0.634,0,1.249-0.241,1.835-0.731
				C197.809,71.485,198.271,70.735,198.605,69.738z"/>
			<path fill="#242C61" d="M210.776,70.024l1.928,0.194c-0.282,0.956-0.92,1.866-1.912,2.726c-0.996,0.863-2.188,1.292-3.565,1.292
				c-0.859,0-1.648-0.2-2.37-0.597c-0.713-0.398-1.264-0.976-1.635-1.735c-0.379-0.76-0.572-1.616-0.572-2.591
				c0-1.271,0.301-2.504,0.886-3.694c0.588-1.192,1.351-2.076,2.278-2.659c0.935-0.58,1.943-0.865,3.031-0.865
				c1.39,0,2.488,0.424,3.316,1.287c0.833,0.861,1.253,2.035,1.253,3.523c0,0.566-0.057,1.15-0.152,1.754h-8.56
				c-0.033,0.226-0.043,0.424-0.043,0.607c0,1.088,0.246,1.918,0.75,2.49c0.496,0.57,1.104,0.857,1.825,0.857
				c0.687,0,1.351-0.22,2.007-0.664C209.899,71.507,210.405,70.862,210.776,70.024z M205.016,67.148h6.524
				c0.003-0.206,0.011-0.354,0.011-0.436c0-0.999-0.247-1.758-0.744-2.286c-0.501-0.529-1.133-0.791-1.916-0.791
				c-0.844,0-1.615,0.291-2.318,0.872C205.883,65.092,205.359,65.97,205.016,67.148z"/>
			<path fill="#242C61" d="M215.334,69.999l1.981-0.116c0,0.567,0.088,1.053,0.256,1.453c0.183,0.403,0.503,0.73,0.973,0.991
				c0.47,0.248,1.019,0.375,1.642,0.375c0.882,0,1.542-0.172,1.98-0.521c0.436-0.352,0.65-0.765,0.65-1.24
				c0-0.34-0.135-0.665-0.39-0.974c-0.274-0.306-0.932-0.679-1.975-1.13c-1.048-0.449-1.716-0.765-2.015-0.946
				c-0.488-0.299-0.847-0.653-1.104-1.058c-0.244-0.404-0.369-0.871-0.369-1.396c0-0.915,0.364-1.706,1.092-2.36
				c0.733-0.655,1.752-0.982,3.069-0.982c1.454,0,2.564,0.336,3.329,1.009c0.768,0.673,1.161,1.562,1.188,2.668l-1.939,0.128
				c-0.023-0.703-0.275-1.254-0.74-1.662c-0.467-0.41-1.134-0.616-1.982-0.616c-0.687,0-1.222,0.155-1.595,0.478
				c-0.382,0.304-0.569,0.646-0.569,1.013s0.165,0.681,0.493,0.958c0.217,0.194,0.781,0.482,1.694,0.88
				c1.517,0.656,2.47,1.171,2.866,1.552c0.627,0.609,0.94,1.346,0.94,2.214c0,0.575-0.177,1.136-0.531,1.694
				c-0.348,0.555-0.894,1-1.623,1.33c-0.722,0.333-1.573,0.497-2.561,0.497c-1.34,0-2.485-0.33-3.425-0.995
				C215.728,72.575,215.28,71.495,215.334,69.999z"/>
			<path fill="#242C61" d="M227.344,73.973l0.48-2.242h2.241l-0.492,2.242H227.344z"/>
			<path fill="#242C61" d="M240.979,68.786l2.104-0.193l-0.027,0.556c0,0.621,0.141,1.187,0.424,1.702
				c0.29,0.512,0.76,0.912,1.412,1.191c0.66,0.285,1.443,0.422,2.352,0.422c1.279,0,2.259-0.283,2.928-0.844
				c0.681-0.56,1.016-1.203,1.016-1.926c0-0.502-0.175-0.962-0.531-1.375c-0.366-0.414-1.361-0.967-2.984-1.668
				c-1.274-0.546-2.123-0.963-2.588-1.256c-0.718-0.475-1.259-0.993-1.604-1.55c-0.336-0.556-0.508-1.192-0.508-1.911
				c0-0.824,0.225-1.562,0.676-2.227c0.458-0.666,1.114-1.173,1.988-1.521c0.874-0.351,1.853-0.53,2.95-0.53
				c1.3,0,2.406,0.222,3.3,0.66c0.904,0.438,1.554,1.021,1.95,1.749c0.412,0.732,0.614,1.428,0.614,2.091
				c0,0.065-0.009,0.175-0.015,0.331l-2.065,0.158c0-0.447-0.037-0.804-0.122-1.054c-0.146-0.448-0.371-0.827-0.68-1.136
				c-0.306-0.299-0.725-0.547-1.257-0.733c-0.537-0.183-1.141-0.282-1.806-0.282c-1.164,0-2.076,0.268-2.725,0.793
				c-0.495,0.4-0.741,0.934-0.741,1.594c0,0.395,0.104,0.744,0.31,1.058c0.202,0.311,0.573,0.612,1.104,0.913
				c0.369,0.213,1.279,0.631,2.699,1.256c1.157,0.514,1.949,0.916,2.382,1.207c0.588,0.386,1.038,0.851,1.351,1.404
				c0.313,0.555,0.47,1.174,0.47,1.88c0,0.864-0.271,1.668-0.79,2.399c-0.53,0.733-1.26,1.299-2.195,1.697
				c-0.931,0.408-2.004,0.605-3.209,0.605c-1.811,0-3.295-0.395-4.448-1.188C241.566,72.265,240.986,70.841,240.979,68.786z"/>
			<path fill="#242C61" d="M255.53,73.973l2.428-11.624h1.981l-0.408,1.917c0.74-0.823,1.401-1.388,1.981-1.706
				c0.579-0.307,1.211-0.465,1.886-0.465c0.722,0,1.331,0.187,1.809,0.569c0.486,0.382,0.807,0.922,0.962,1.602
				c0.592-0.723,1.211-1.271,1.867-1.63c0.65-0.361,1.34-0.541,2.062-0.541c0.972,0,1.698,0.226,2.179,0.684
				c0.485,0.457,0.725,1.109,0.725,1.936c0,0.361-0.08,0.953-0.248,1.775l-1.567,7.483h-1.979l1.597-7.683
				c0.14-0.623,0.209-1.072,0.209-1.345c0-0.378-0.121-0.68-0.359-0.899c-0.243-0.216-0.579-0.324-1.019-0.324
				c-0.585,0-1.191,0.176-1.802,0.537c-0.627,0.354-1.096,0.828-1.428,1.403c-0.339,0.579-0.645,1.475-0.894,2.673l-1.184,5.638
				h-1.984l1.648-7.846c0.111-0.532,0.168-0.909,0.168-1.136c0-0.381-0.118-0.684-0.354-0.92c-0.239-0.234-0.542-0.35-0.924-0.35
				c-0.561,0-1.149,0.176-1.763,0.537c-0.615,0.354-1.119,0.854-1.505,1.491c-0.39,0.638-0.714,1.551-0.954,2.731l-1.149,5.491
				H255.53z"/>
			<path fill="#242C61" d="M282.493,72.53c-0.688,0.588-1.353,1.025-1.978,1.294c-0.639,0.276-1.316,0.412-2.046,0.412
				c-1.066,0-1.937-0.314-2.588-0.946c-0.66-0.628-0.981-1.439-0.981-2.424c0-0.652,0.146-1.228,0.439-1.726
				c0.293-0.496,0.687-0.896,1.183-1.198c0.48-0.306,1.084-0.521,1.791-0.652c0.438-0.085,1.285-0.159,2.53-0.211
				c1.244-0.049,2.138-0.18,2.68-0.393c0.153-0.537,0.229-0.985,0.229-1.346c0-0.458-0.172-0.818-0.505-1.082
				c-0.461-0.365-1.133-0.551-2.015-0.551c-0.828,0-1.512,0.186-2.042,0.556c-0.531,0.366-0.913,0.89-1.152,1.571l-1.998-0.18
				c0.405-1.15,1.046-2.034,1.943-2.647c0.881-0.61,2-0.913,3.348-0.913c1.439,0,2.573,0.339,3.413,1.023
				c0.643,0.512,0.962,1.176,0.962,1.993c0,0.62-0.093,1.336-0.271,2.157l-0.646,2.887c-0.211,0.917-0.31,1.665-0.31,2.242
				c0,0.363,0.081,0.889,0.24,1.575h-1.997C282.611,73.593,282.535,73.116,282.493,72.53z M283.226,68.089
				c-0.279,0.108-0.581,0.193-0.896,0.246c-0.313,0.062-0.845,0.124-1.581,0.188c-1.156,0.099-1.978,0.233-2.446,0.389
				c-0.475,0.159-0.828,0.412-1.074,0.749c-0.243,0.343-0.359,0.724-0.359,1.136c0,0.56,0.192,1.013,0.575,1.37
				c0.384,0.357,0.923,0.535,1.64,0.535c0.65,0,1.286-0.172,1.887-0.518c0.607-0.346,1.088-0.828,1.435-1.453
				C282.761,70.115,283.019,69.23,283.226,68.089z"/>
			<path fill="#242C61" d="M287.569,73.973l2.432-11.624h1.746l-0.494,2.381c0.6-0.899,1.188-1.562,1.757-1.998
				c0.568-0.424,1.156-0.637,1.759-0.637c0.391,0,0.87,0.139,1.455,0.42l-0.813,1.844c-0.34-0.251-0.714-0.375-1.121-0.375
				c-0.703,0-1.408,0.386-2.144,1.16c-0.724,0.775-1.293,2.16-1.709,4.17l-0.988,4.659H287.569z"/>
			<path fill="#242C61" d="M300.109,72.366l-0.328,1.619c-0.473,0.121-0.938,0.185-1.386,0.185c-0.782,0-1.408-0.191-1.877-0.583
				c-0.354-0.291-0.522-0.685-0.522-1.189c0-0.255,0.094-0.84,0.281-1.761l1.409-6.749h-1.558l0.313-1.539h1.564l0.599-2.85
				l2.264-1.371l-0.885,4.221h1.951l-0.334,1.539h-1.932l-1.351,6.416c-0.167,0.819-0.243,1.312-0.243,1.47
				c0,0.235,0.064,0.411,0.197,0.537c0.126,0.122,0.354,0.186,0.66,0.186C299.373,72.496,299.759,72.454,300.109,72.366z"/>
			<path fill="#242C61" d="M313.169,73.973l2.97-14.212h-5.265l0.378-1.828h12.629l-0.387,1.828h-5.214l-2.962,14.212H313.169z"/>
			<path fill="#242C61" d="M321.297,73.973l2.428-11.624h1.747l-0.488,2.381c0.604-0.899,1.191-1.562,1.756-1.998
				c0.573-0.424,1.156-0.637,1.765-0.637c0.388,0,0.877,0.139,1.453,0.42l-0.812,1.844c-0.343-0.251-0.722-0.375-1.134-0.375
				c-0.69,0-1.397,0.386-2.126,1.16c-0.729,0.775-1.3,2.16-1.719,4.17l-0.984,4.659H321.297z"/>
			<path fill="#242C61" d="M337.043,72.53c-0.684,0.588-1.352,1.025-1.978,1.294c-0.639,0.276-1.317,0.412-2.03,0.412
				c-1.077,0-1.947-0.314-2.597-0.946c-0.661-0.628-0.985-1.439-0.985-2.424c0-0.652,0.146-1.228,0.439-1.726
				c0.299-0.496,0.684-0.896,1.176-1.198c0.488-0.306,1.088-0.521,1.799-0.652c0.442-0.085,1.288-0.159,2.525-0.211
				c1.254-0.049,2.142-0.18,2.681-0.393c0.153-0.537,0.229-0.985,0.229-1.346c0-0.458-0.172-0.818-0.505-1.082
				c-0.461-0.365-1.133-0.551-2.012-0.551c-0.832,0-1.511,0.186-2.042,0.556c-0.531,0.366-0.908,0.89-1.153,1.571l-2.006-0.18
				c0.411-1.15,1.06-2.034,1.945-2.647c0.885-0.61,2.004-0.913,3.352-0.913c1.437,0,2.574,0.339,3.413,1.023
				c0.646,0.512,0.962,1.176,0.962,1.993c0,0.62-0.089,1.336-0.271,2.157l-0.647,2.887c-0.196,0.917-0.311,1.665-0.311,2.242
				c0,0.363,0.085,0.889,0.245,1.575h-1.997C337.161,73.593,337.093,73.116,337.043,72.53z M337.775,68.089
				c-0.274,0.108-0.573,0.193-0.893,0.246c-0.313,0.062-0.844,0.124-1.585,0.188c-1.156,0.099-1.973,0.233-2.438,0.389
				c-0.482,0.159-0.84,0.412-1.081,0.749c-0.236,0.343-0.354,0.724-0.354,1.136c0,0.56,0.191,1.013,0.573,1.37
				c0.38,0.357,0.922,0.535,1.629,0.535c0.665,0,1.29-0.172,1.894-0.518c0.611-0.346,1.083-0.828,1.443-1.453
				C337.302,70.115,337.573,69.23,337.775,68.089z"/>
			<path fill="#242C61" d="M349.957,72.29c-1.134,1.296-2.313,1.946-3.547,1.946c-1.099,0-2.019-0.403-2.752-1.22
				c-0.737-0.814-1.1-1.996-1.1-3.535c0-1.423,0.29-2.715,0.867-3.882c0.584-1.173,1.31-2.048,2.183-2.632
				c0.863-0.586,1.741-0.873,2.611-0.873c1.449,0,2.539,0.689,3.272,2.084l1.315-6.246h1.975l-3.348,16.04h-1.829L349.957,72.29z
				 M344.532,69.106c0,0.809,0.073,1.446,0.236,1.912c0.161,0.468,0.437,0.854,0.82,1.166c0.39,0.31,0.844,0.46,1.394,0.46
				c0.891,0,1.708-0.464,2.436-1.397c0.975-1.239,1.47-2.771,1.47-4.596c0-0.916-0.24-1.634-0.729-2.153
				c-0.486-0.517-1.085-0.776-1.817-0.776c-0.469,0-0.901,0.105-1.298,0.314c-0.387,0.214-0.774,0.569-1.157,1.08
				c-0.382,0.507-0.705,1.151-0.966,1.93C344.658,67.829,344.532,68.515,344.532,69.106z"/>
			<path fill="#242C61" d="M354.953,73.973l2.429-11.624h1.978l-2.425,11.624H354.953z M357.844,60.173l0.47-2.24h1.969l-0.469,2.24
				H357.844z"/>
			<path fill="#242C61" d="M360.458,73.973l2.432-11.624h1.791l-0.424,2.031c0.777-0.794,1.509-1.378,2.187-1.74
				c0.668-0.365,1.371-0.545,2.08-0.545c0.935,0,1.668,0.253,2.219,0.765c0.53,0.511,0.795,1.187,0.795,2.044
				c0,0.43-0.089,1.108-0.278,2.033l-1.482,7.036H367.8l1.541-7.362c0.148-0.715,0.233-1.246,0.233-1.588
				c0-0.385-0.134-0.699-0.408-0.94c-0.264-0.241-0.643-0.36-1.153-0.36c-1.011,0-1.912,0.366-2.708,1.098
				c-0.785,0.728-1.373,1.975-1.747,3.75l-1.122,5.403H360.458z"/>
			<path fill="#242C61" d="M373.258,75.021l2.009,0.191c-0.024,0.453,0.033,0.79,0.155,1.018c0.127,0.227,0.317,0.399,0.589,0.522
				c0.354,0.163,0.827,0.239,1.393,0.239c1.203,0,2.058-0.308,2.589-0.926c0.339-0.416,0.652-1.326,0.948-2.718l0.195-0.938
				c-1.025,1.044-2.126,1.563-3.277,1.563c-1.18,0-2.161-0.433-2.952-1.295c-0.798-0.864-1.187-2.093-1.187-3.671
				c0-1.306,0.31-2.506,0.936-3.602c0.617-1.092,1.362-1.92,2.222-2.477c0.862-0.559,1.748-0.834,2.656-0.834
				c1.53,0,2.699,0.717,3.526,2.164l0.39-1.91h1.818l-2.341,11.218c-0.255,1.235-0.588,2.193-1.008,2.888
				c-0.412,0.684-0.98,1.223-1.725,1.602c-0.745,0.379-1.604,0.568-2.573,0.568c-0.932,0-1.736-0.117-2.417-0.363
				c-0.668-0.237-1.171-0.59-1.503-1.059c-0.33-0.459-0.498-0.99-0.498-1.588C373.203,75.431,373.224,75.237,373.258,75.021z
				 M375.735,68.829c0,0.798,0.064,1.396,0.229,1.797c0.213,0.559,0.526,0.99,0.928,1.281c0.411,0.301,0.854,0.449,1.354,0.449
				c0.649,0,1.298-0.232,1.939-0.685c0.646-0.459,1.156-1.165,1.558-2.117c0.394-0.957,0.595-1.873,0.595-2.735
				c0-0.958-0.259-1.716-0.798-2.283c-0.522-0.564-1.172-0.848-1.954-0.848c-0.484,0-0.954,0.129-1.409,0.391
				c-0.442,0.253-0.874,0.65-1.263,1.181c-0.385,0.526-0.687,1.16-0.882,1.894C375.831,67.893,375.735,68.452,375.735,68.829z"/>
			<path fill="#242C61" d="M386.828,73.973l0.469-2.242h2.242l-0.481,2.242H386.828z"/>
		</g>
	</g>
	<g>
		<path fill="#242C61" d="M37.053,48.74c0,0,0.431,3.221,3.141,4.711l-0.721-1.346C39.473,52.105,40.851,48.485,37.053,48.74z"/>
		<path fill="#242C61" d="M72.149,14.257C58.559,0.661,36.461,0.661,22.875,14.253c-13.586,13.59-13.586,35.7,0,49.291
			c13.586,13.59,35.692,13.587,49.274-0.001C85.75,49.953,85.75,27.843,72.149,14.257z M68.546,59.937
			c-0.381,0.375-0.752,0.736-1.138,1.084c-8.371,6.822-14.82,3.428-14.891,3.428c-4.371-0.873-6.54-0.888-7.765-1.707
			c-0.31-0.206-1.298-0.737-1.524-0.609c-0.892,0.532-2.119,0.804-3.381-0.2c-0.114-0.094-0.217-0.192-0.317-0.286
			c-1.389-1.388-0.916-2.817-0.455-3.313c0.32-0.325-0.245-1.241-0.245-1.241s-1.64-2.438-2.763-3.904
			c-1.234-1.609-1.401-4.805-1.416-4.846l-0.016-0.046c-1.248-1.482-1.378-1.938-1.81-2.661c-0.251-0.426-0.637-0.827-0.965-1.17
			c-0.225-0.227-0.435-0.439-0.58-0.639c-0.035-0.043-0.042-0.106-0.028-0.204c0.112-0.692,1.601-2.217,1.921-2.429
			c0.394-0.256,2.088-1.287,2.088-1.287s0.955-1.497,2.577-1.497c1.462,0.005,2.355-0.082,4.878,0.74l1.05,0.333
			c1.76,0.564,3.31,1.229,4.542,1.761c1.046,0.452,1.882,0.814,2.523,0.981c2.176,0.574,6.016-1.187,6.826-1.932
			c1.328-1.208,1.9-2.019,1.908-2.683c0.012-0.373-0.153-0.697-0.53-1.09c-0.195-0.182-0.447-0.518-0.764-0.837
			c-0.049-0.051-0.103-0.109-0.167-0.156c-3.684-3.914-3.046-6.368-3.042-6.408c0.156-1.76-0.852-2.888-1.936-4.059l-0.179-0.221
			c-0.058-0.052-0.126-0.142-0.126-0.142c1.569,0.258,2.638,0.89,5.703,1.231c1.741,0.187,1.191,0.17,2.581,0.136
			c1.916-0.062,3.435-0.229,3.539-0.665c-0.188-0.159-1.034,0.047-5.104-1.508c-1.882-0.724-2.18-0.83-3.379-1.227
			c-1.539-0.52-3.207-1.239-3.207-1.239c6.638,1.742,8.807,2.423,11.845,2.466c1.172,0.021,1.871-0.12,2.282-0.204
			c0.432-0.078,1.772-0.382,1.924-0.846c0.046-0.08-1.286,0.218-3.748-0.593c-7.746-2.561-8.406-3.842-12.701-5.511
			c-1.496-0.582-1.984-0.902-6.508-2.068c-2.073-0.532-5.207-0.228-5.631,0.04c-5.875-1.38-7.208-1.228-8.932-0.859
			c11.49-7.367,27.007-6.04,37.059,4.014c1.363,1.365,2.569,2.834,3.626,4.389l0.141,0.214c3.226,4.829,4.947,10.496,4.947,16.428
			C77.261,46.846,74.165,54.312,68.546,59.937z M49.039,26.35c2.916,1.041,3.852,4.147,3.852,4.147
			c-3.707,0.844-2.924-2.941-2.924-2.941L49.039,26.35z"/>
	</g>
</g>
</svg>
