<?xml version="1.0" encoding="utf-8"?>
<!-- Generator: Adobe Illustrator 14.0.0, SVG Export Plug-In . SVG Version: 6.00 Build 43363)  -->
<!DOCTYPE svg PUBLIC "-//W3C//DTD SVG 1.1//EN" "http://www.w3.org/Graphics/SVG/1.1/DTD/svg11.dtd">
<svg version="1.1" id="Layer_1" xmlns="http://www.w3.org/2000/svg" xmlns:xlink="http://www.w3.org/1999/xlink" x="0px" y="0px"
	 width="512px" height="512px" viewBox="0 0 512 512" enable-background="new 0 0 512 512" xml:space="preserve">
<path d="M277.177,391.893c0-30.627,11.927-59.421,33.584-81.077s50.45-33.583,81.076-33.583c15.907,0,31.345,3.223,45.885,9.578
	c4.665,2.039,9.177,4.391,13.513,7.021C458.259,276.204,462,257.608,462,238.783c0-100.732-97.868-173.43-206-173.43
	c-108.811,0-206,73.248-206,173.431c0,35.532,12.684,70.421,35.135,97.493C86.083,368,67.583,413.5,50.918,446.646
	c44.665-8.146,108.165-26.146,136.963-43.949c32.268,7.925,62.754,10.177,90.849,7.857
	C277.709,404.39,277.177,398.144,277.177,391.893z M196.25,205.871C197.199,178.41,208.805,140,259.75,140
	c44.15,0,64,29.568,64,57.296c0,44.135-44.58,51.801-44.58,80.267v3.994c0,0-33.3,0-36.613,0v-3.994
	c0-11.31,1.65-25.812,14.775-38.418c13.127-12.61,29.529-23.027,29.529-38.78c0-17.415-12.084-26.627-27.324-26.627
	c-25.393,0-27.051,26.335-27.678,32.134H196.25z M239.497,320.996c0-12.262,9.946-22.205,22.21-22.205
	c12.268,0,22.211,9.943,22.211,22.205c0,12.268-9.943,22.215-22.211,22.215C249.443,343.211,239.497,333.264,239.497,320.996z"/>
<path d="M459.602,341.143c-8.731-11.641-20.399-20.943-33.896-26.844c-10.373-4.534-21.822-7.066-33.868-7.066
	c-46.754,0-84.66,37.903-84.66,84.66c0,13.788,3.317,26.794,9.166,38.297c6.649,13.081,16.586,24.204,28.737,32.271
	c13.399,8.896,29.47,14.089,46.757,14.089c46.756,0,84.66-37.903,84.66-84.657C476.497,372.854,470.21,355.284,459.602,341.143z
	 M423.944,442.255l-18.171-18.17l-13.523-13.522l-31.695,31.695l-17.023-17.033l14.228-14.229l17.462-17.464l-31.693-31.69
	l17.033-17.023l31.688,31.684l11.927-11.929l19.755-19.759l17.037,17.026l-31.688,31.69l13.19,13.187l18.503,18.499L423.944,442.255
	z"/>
<text transform="matrix(1 0 0 1 246.5 -85.5)" font-family="'MyriadPro-Regular'" font-size="48">off</text>
</svg>
