<?xml version="1.0" encoding="utf-8"?>
<!-- Generator: Adobe Illustrator 14.0.0, SVG Export Plug-In . SVG Version: 6.00 Build 43363)  -->
<!DOCTYPE svg PUBLIC "-//W3C//DTD SVG 1.1//EN" "http://www.w3.org/Graphics/SVG/1.1/DTD/svg11.dtd">
<svg version="1.1" id="Layer_1" xmlns="http://www.w3.org/2000/svg" xmlns:xlink="http://www.w3.org/1999/xlink" x="0px" y="0px"
	 width="512px" height="512px" viewBox="598 0 512 512" enable-background="new 598 0 512 512" xml:space="preserve">
<path d="M875.177,391.893c0-30.627,11.927-59.421,33.584-81.077s50.45-33.583,81.076-33.583c15.907,0,31.345,3.223,45.885,9.578
	c4.665,2.039,9.177,4.391,13.513,7.021c7.024-17.628,10.766-36.224,10.766-55.049c0-100.732-97.868-173.43-206-173.43
	c-108.811,0-206,73.248-206,173.431c0,35.532,12.684,70.421,35.135,97.493c0.948,31.723-17.552,77.223-34.217,110.369
	c44.665-8.146,108.165-26.146,136.963-43.949c32.268,7.925,62.754,10.177,90.849,7.857
	C875.709,404.39,875.177,398.144,875.177,391.893z M794.25,205.871C795.199,178.41,806.805,140,857.75,140
	c44.15,0,64,29.568,64,57.296c0,44.135-44.58,51.801-44.58,80.267v3.994c0,0-33.3,0-36.613,0v-3.994
	c0-11.31,1.65-25.812,14.775-38.418c13.127-12.61,29.529-23.027,29.529-38.78c0-17.415-12.084-26.627-27.324-26.627
	c-25.393,0-27.051,26.335-27.678,32.134H794.25z M837.497,320.996c0-12.262,9.946-22.205,22.21-22.205
	c12.268,0,22.211,9.943,22.211,22.205c0,12.268-9.943,22.215-22.211,22.215C847.443,343.211,837.497,333.264,837.497,320.996z"/>
<path d="M989.836,307.232c-46.756,0-84.659,37.903-84.659,84.658c0,46.756,37.903,84.659,84.659,84.659s84.659-37.903,84.659-84.659
	C1074.495,345.137,1036.592,307.232,989.836,307.232z M975.433,437.492l-39.997-40.008l17.03-17.034l22.967,22.973l53.021-53.021
	l17.038,17.025L975.433,437.492z"/>
</svg>
